# xmcd CD database file
#
# Track frame offsets:
#	150
#	24428
#	52018
#	74502
#	104057
#	118525
#	143152
#	173159
#	208673
#	236462
#
# Disc length: 3378 seconds
#
# Revision: 1
# Processed by: cddbd v1.5.2PL0 Copyright (c) Steve Scherf et al.
# Submitted via: CDex 1.51
#
DISCID=910d300a
DTITLE=Gianfranco Continenza - Gianfranco Continenza - The Past Inside The Present
DYEAR=2007
DGENRE=Jazz
TTITLE0=Gianfranco Continenza - Outside That Door
TTITLE1=Gianfranco Continenza - Happy New Funky
TTITLE2=Gianfranco Continenza - Fragments Of Soul
TTITLE3=Gianfranco Continenza - Shadows And Lights
TTITLE4=Gianfranco Continenza - The Dominant Wave
TTITLE5=Gianfranco Continenza - One Note Waltz
TTITLE6=Gianfranco Continenza - Parallel Life
TTITLE7=Gianfranco Continenza - Soul Friend
TTITLE8=Gianfranco Continenza - The Past Inside The Present
TTITLE9=Gianfranco Continenza - Labyrinth Of Mirrors
EXTD=YEAR: 2007
EXTT0=
EXTT1=
EXTT2=
EXTT3=
EXTT4=
EXTT5=
EXTT6=
EXTT7=
EXTT8=
EXTT9=
PLAYORDER=
